<svg xmlns="http://www.w3.org/2000/svg" width="110" hight="24" viewBox="0 0 886.38 344.78"><g id="Layer_2" data-name="Layer 2"><g id="Layer_1-2" data-name="Layer 1"><path d="M884,0c1.76,0,2.51.74,2.41,2.41a18.94,18.94,0,0,1-1.67,6c-2.17,5.37-4.76,10.54-7.39,15.7a103,103,0,0,1-10.59,17.28,45.55,45.55,0,0,1-22.5,15.69c-5.7,1.81-11.43,3.51-17.21,5-6.45,1.68-13,3.11-19.49,4.41-10.12,2-20.33,3.53-30.42,5.7a87.09,87.09,0,0,0-22.58,7.86,92.16,92.16,0,0,0-14.83,10A74.32,74.32,0,0,0,728,102.38a106.29,106.29,0,0,0-7.19,10.86c-3.47,5.78-6.46,11.82-9.5,17.84-.31.61-.68,1.8-1.19,1.57-.78-.35-.12-1.35,0-2,1.92-7.73,4.16-15.37,6.51-23a198.9,198.9,0,0,1,10.5-27.86,95.29,95.29,0,0,1,7-12.16,65.15,65.15,0,0,1,7.69-9.11,67.19,67.19,0,0,1,10.69-8.61,104.12,104.12,0,0,1,17.32-9.21,179.38,179.38,0,0,1,20.16-7c9.14-2.66,18.32-5.19,27.47-7.81q9.66-2.78,19.15-6.09c8.24-2.87,16.35-6.07,24.29-9.71,4.91-2.25,9.73-4.69,14.61-7A48.17,48.17,0,0,1,882.18.31,5.43,5.43,0,0,1,884,0Z" fill="#f47920"/><path d="M849.11,83a35.1,35.1,0,0,1-3.93,9c-2.69,4.67-5.18,9.49-8.35,13.92-5.75,8-12.06,13.88-21.66,16.74-4.76,1.41-9.59,1.24-14.49,1.52-12.31.71-24.62.48-36.86,2.37a76.76,76.76,0,0,0-20.07,5.53c-6.26,2.82-12.14,6.12-16.43,11.84-4.61,6.15-7.46,13.53-9.27,21a163.68,163.68,0,0,0-4.16,34.81v1.46A74.87,74.87,0,0,0,711.54,185l.06-3.22c-.53-28.26,1.92-53.34,25.78-72.13,18.42-14.51,40.67-16.61,63-19,9.2-1,18.12-2.19,26.93-4.69,4.09-1.16,7.83-2.73,11.75-4.06a39.27,39.27,0,0,1,7.18-2.07C848.61,79.5,849.67,80.6,849.11,83Z" fill="#4fa941"/><path d="M816.8,141.25V339.33H756.42V141.25Z" fill="navy"/><path d="M60.08,133.91v98.37q0,20.61,8.16,31.83T93,275.32q16.63,0,25.11-11.39t8.47-31.65V133.91H187v98.37q0,35.09-12.63,59.85T140,329.39q-21.72,12.47-48.22,12.47T44.52,329.39q-20.81-12.48-32.66-37.07T0,232.28V133.91Z" fill="navy"/><path d="M322.26,278.93v60.4H296.07q-66.24,0-66.24-77V226.7H208.57V183.1h21.26V133.91h60.69V183.1H322v43.6H290.52v36.68q0,8.33,3.24,11.94t10.93,3.61Z" fill="navy"/><path d="M458.12,339.33l-47.75-83.18v83.18H350V133.44h60.39V216l47.75-79.57h72.4l-68.09,102,69.32,100.9Z" fill="navy"/><path d="M685,147.4c-15.73-11.08-37.21-17.18-60.47-17.18h0c-24.63,0-48.48,6.8-65.43,18.64l-7.67,5.36,5.3,7.71,14.17,20.57,4.81,7,7.47-4.07a83.1,83.1,0,0,1,35.32-8.35,65.72,65.72,0,0,1,10.49.82c9.87,1.57,19.3,4.92,25.91,9.19,7.81,5,11.61,11.06,11.61,18.38v12.75a81,81,0,0,0-13.69-7c-11.23-4.49-24-6.77-37.83-6.77-18.83,0-36.48,6-49.69,16.86-15.52,12.77-23.72,31.14-23.72,53.13,0,45.7,37.82,70.37,73.41,70.37a97.88,97.88,0,0,0,37.81-7.2,83.68,83.68,0,0,0,13.71-7.25v9.87H714V204.32C714,180.41,703.94,160.72,685,147.4Zm-59.34,158c-21.7,0-36.28-12.44-36.28-30.95,0-18.29,14.58-30.57,36.28-30.57,16.83,0,31.85,6.07,40.85,16.36v28.48C657.61,299.17,642.58,305.36,625.68,305.36Z" fill="navy"/></g></g></svg>